<?xml version="1.0" encoding="utf-8"?>
<!-- Generator: Adobe Illustrator 18.1.1, SVG Export Plug-In . SVG Version: 6.00 Build 0)  -->
<!DOCTYPE svg PUBLIC "-//W3C//DTD SVG 1.1//EN" "http://www.w3.org/Graphics/SVG/1.1/DTD/svg11.dtd">
<svg version="1.1" id="Layer_1" xmlns:sketch="http://www.bohemiancoding.com/sketch/ns"
	 xmlns="http://www.w3.org/2000/svg" xmlns:xlink="http://www.w3.org/1999/xlink" x="0px" y="0px" viewBox="-306 183.3 229 229"
	 enable-background="new -306 183.3 229 229" xml:space="preserve">
<title>Group Copy</title>
<desc>Created with Sketch.</desc>
<g id="Home" sketch:type="MSPage">
	<g id="Landing---Touch-up---1-Copy" transform="translate(-611.000000, -237.350416)" sketch:type="MSArtboardGroup">
		<g id="Group-Copy" transform="translate(611.109500, 237.500000)" sketch:type="MSLayerGroup">
			<path id="Rectangle-126-Copy-4" sketch:type="MSShapeGroup" fill="none" stroke="#565656" d="M-255.8,183.8H-128
				c27.6,0,50,22.4,50,50v127.8c0,27.6-22.4,50-50,50h-127.8c-27.6,0-50-22.4-50-50V233.8C-305.8,206.2-283.4,183.8-255.8,183.8z"/>
			<path id="Oval-68" sketch:type="MSShapeGroup" fill="none" stroke="#565656" d="M-167.2,285.5c10.1,4.3,22.3,2.3,30.5-5.9
				c7.9-7.9,10-19.4,6.5-29.2l0,0l-19.6,19.6l-14.7-1.9l-1.9-14.7l19.6-19.6c-9.8-3.6-21.3-1.4-29.2,6.5
				c-7.9,7.9-10.1,19.5-6.4,29.3l-67.2,67.2c0,0-9.1,9.5-1.4,17.2c7.7,7.7,17-1.6,17-1.6L-167.2,285.5z"/>
			<g id="Path-72-_x2B_-Rectangle-129-_x2B_-Path-73" transform="translate(50.000000, 51.000000)" sketch:type="MSShapeGroup">
				<path id="Path-72" fill="none" stroke="#565656" d="M-249.9,224.7l-23.2-23.2l-14.6,14.6l23.2,23.1"/>
				<path id="Rectangle-129" fill="none" stroke="#565656" d="M-305.6,199.2l15.5-15.5l12.5,12.5l-15.5,15.5L-305.6,199.2z"/>
				<path id="Path-73" fill="none" stroke="#565656" d="M-237.3,268.1l35.4,34.3l21.9,7.5l-6.1-21.3l-36.1-35.4"/>
			</g>
		</g>
	</g>
</g>
</svg>
