<?xml version="1.0" encoding="UTF-8" standalone="no"?>
<svg width="67px" height="67px" viewBox="0 0 67 67" version="1.1" xmlns="http://www.w3.org/2000/svg" xmlns:xlink="http://www.w3.org/1999/xlink" xmlns:sketch="http://www.bohemiancoding.com/sketch/ns">
    <!-- Generator: Sketch 3.3.1 (12002) - http://www.bohemiancoding.com/sketch -->
    <title>Oval 1 Copy 3 + Group Copy</title>
    <desc>Created with Sketch.</desc>
    <defs></defs>
    <g id="Home" stroke="none" stroke-width="1" fill="none" fill-rule="evenodd" sketch:type="MSPage">
        <g id="Plans" sketch:type="MSArtboardGroup" transform="translate(-927.000000, -1019.000000)">
            <g id="Oval-1-Copy-3-+-Group-Copy" sketch:type="MSLayerGroup" transform="translate(928.000000, 1020.000000)">
                <circle id="Oval-1-Copy-3" stroke="#000000" sketch:type="MSShapeGroup" cx="32.600166" cy="32.5" r="32.5"></circle>
                <g id="Group-Copy" transform="translate(21.100166, 16.000000)" sketch:type="MSShapeGroup">
                    <path d="M17.5545293,21.5874009 C20.8232519,19.5299278 23,15.8561847 23,11.6666667 C23,5.22334459 17.8512746,0 11.5,0 C5.14872538,0 0,5.22334459 0,11.6666667 C0,15.8561847 2.17674815,19.5299278 5.44547074,21.5874009 L6.16071429,26.6666667 L16.8392857,26.6666667 L17.5545293,21.5874009 Z" id="Oval-4" stroke="#000000"></path>
                    <rect id="Rectangle-13" fill="#000000" x="6.57142857" y="29.1666667" width="9.85714286" height="0.833333333"></rect>
                    <rect id="Rectangle-13-Copy" fill="#000000" x="7.80357143" y="31.6666667" width="7.39285714" height="0.833333333"></rect>
                    <rect id="Rectangle-13-Copy-2" fill="#000000" x="9.03571429" y="34.1666667" width="4.92857143" height="0.833333333"></rect>
                    <rect id="Rectangle-16" fill="#000000" x="9.85714286" y="20" width="0.821428571" height="2.5"></rect>
                    <rect id="Rectangle-16-Copy-2" fill="#000000" x="12.3214286" y="20" width="0.821428571" height="2.5"></rect>
                    <rect id="Rectangle-16-Copy" fill="#000000" x="9.03571429" y="19.1666667" width="4.92857143" height="0.833333333"></rect>
                </g>
            </g>
        </g>
    </g>
</svg>