<?xml version="1.0" encoding="UTF-8" standalone="no"?>
<svg width="67px" height="67px" viewBox="0 0 67 67" version="1.1" xmlns="http://www.w3.org/2000/svg" xmlns:xlink="http://www.w3.org/1999/xlink" xmlns:sketch="http://www.bohemiancoding.com/sketch/ns">
    <!-- Generator: Sketch 3.3.1 (12002) - http://www.bohemiancoding.com/sketch -->
    <title>Oval 1 Copy 3 + Oval 5 Copy 2 + Rectangle 23 Copy 2</title>
    <desc>Created with Sketch.</desc>
    <defs></defs>
    <g id="Home" stroke="none" stroke-width="1" fill="none" fill-rule="evenodd" sketch:type="MSPage">
        <g id="Plans" sketch:type="MSArtboardGroup" transform="translate(-684.000000, -1019.000000)">
            <g id="Oval-1-Copy-3-+-Oval-5-Copy-2-+-Rectangle-23-Copy-2" sketch:type="MSLayerGroup" transform="translate(685.000000, 1020.000000)">
                <circle id="Oval-1-Copy-3" stroke="#000000" sketch:type="MSShapeGroup" cx="32.600166" cy="32.5" r="32.5"></circle>
                <path d="M37.1961798,32.9589623 C38.0526288,33.2571713 38.9728486,33.4192351 39.9309203,33.4192351 C44.5223599,33.4192351 48.2444571,29.6971379 48.2444571,25.1056984 C48.2444571,24.2793714 48.1238997,23.4812021 47.8994142,22.7278197 L47.8994142,22.7278197 L44.1623884,26.4648455 L38.9481706,26.4648455 L38.9481706,20.8965469 L42.6110755,17.2336421 C41.7701564,16.9474231 40.86867,16.7921616 39.9309203,16.7921616 C35.3394808,16.7921616 31.6173835,20.5142588 31.6173835,25.1056984 C31.6173835,26.2905332 31.8652431,27.4174774 32.3119401,28.4375089 L17.2444571,43.5049918 L21.9473037,48.2078384 L37.1961798,32.9589623 Z" id="Oval-5-Copy-2" stroke="#000000" sketch:type="MSShapeGroup"></path>
                <rect id="Rectangle-23-Copy-2" fill="#000000" sketch:type="MSShapeGroup" transform="translate(25.600166, 40.500000) rotate(-45.000000) translate(-25.600166, -40.500000) " x="20.100166" y="40" width="11" height="1"></rect>
            </g>
        </g>
    </g>
</svg>