<?xml version="1.0" encoding="utf-8"?>
<!-- Generator: Adobe Illustrator 19.0.0, SVG Export Plug-In . SVG Version: 6.00 Build 0)  -->
<!DOCTYPE svg PUBLIC "-//W3C//DTD SVG 1.1//EN" "http://www.w3.org/Graphics/SVG/1.1/DTD/svg11.dtd">
<svg version="1.1" id="Layer_1" xmlns="http://www.w3.org/2000/svg" xmlns:xlink="http://www.w3.org/1999/xlink" x="0px" y="0px"
	 viewBox="0 0 109.4628 124.3547" enable-background="new 0 0 109.4628 124.3547" xml:space="preserve">
<path id="XMLID_47_" fill="#E2E2E2" d="M54.832,7.6546c-30.1713,0-54.6308,24.5576-54.6308,54.8501s24.4595,54.8501,54.6308,54.8501
	s54.6308-24.5576,54.6308-54.8501S85.0033,7.6546,54.832,7.6546z M28.0002,78.3954V73.855
	c-2.2989,2.6148-4.9176,4.3574-8.7759,4.337C10.095,78.1419,2.6932,70.7604,2.6932,61.5944c0-9.1659,7.4018-16.5964,16.5312-16.5964
	c9.1293,0,17.071,7.3722,17.071,16.5392l0.0092,16.8L28.0002,78.3954z M55.2436,78.6562c-9.1293,0-17.071-7.3723-17.071-16.5391
	l-0.0092-27.9253h8.2921l0.0112,15.6075c2.3-2.6149,4.9186-4.3575,8.7769-4.3371c9.1283,0.0512,16.5302,7.4316,16.5302,16.5975
	S64.372,78.6562,55.2436,78.6562z M90.7882,78.2666c-9.1293,0-16.5311-7.4305-16.5311-16.5964s7.4018-16.5965,16.5311-16.5965
	c7.9682,0,14.6438,5.8403,16.2072,13.3741l-8.3124-0.0276c-1.2742-3.0229-4.2677-5.0651-7.743-5.0651
	c-4.6335,0-8.3898,3.7704-8.3898,8.4224c0,4.6531,3.7564,8.4246,8.3898,8.4246c3.4753,0,6.5055-2.0197,7.7797-5.0437l8.3114-0.0389
	C105.49,72.683,98.7767,78.2666,90.7882,78.2666z"/>
<g id="XMLID_50_">
	<ellipse id="XMLID_41_" fill="#E2E2E2" cx="55.0311" cy="61.6165" rx="8.3909" ry="8.424"/>
</g>
<g id="XMLID_48_">
	<ellipse id="XMLID_40_" fill="#E2E2E2" cx="19.327" cy="61.6165" rx="8.3909" ry="8.424"/>
</g>
</svg>
