<?xml version="1.0" encoding="utf-8"?>
<!-- Generator: Adobe Illustrator 19.0.0, SVG Export Plug-In . SVG Version: 6.00 Build 0)  -->
<!DOCTYPE svg PUBLIC "-//W3C//DTD SVG 1.1//EN" "http://www.w3.org/Graphics/SVG/1.1/DTD/svg11.dtd">
<svg version="1.1" id="Layer_1" xmlns="http://www.w3.org/2000/svg" xmlns:xlink="http://www.w3.org/1999/xlink" x="0px" y="0px"
	 viewBox="0 0 115 127" enable-background="new 0 0 115 127" xml:space="preserve">
<g id="XMLID_4_">
	<path id="XMLID_5_" fill="none" stroke="#E2E2E2" stroke-width="4" stroke-miterlimit="10" d="M78.8,33.3
		c-9.3-0.7-17.2,5.2-21.6,5.2c-4.5,0-11.3-5-18.6-4.9c-9.6,0.1-18.4,5.6-23.3,14.2c-9.9,17.3-2.5,42.9,7.2,56.9
		c4.7,6.8,10.4,14.6,17.8,14.3c7.1-0.3,9.9-4.6,18.5-4.6c8.6,0,11.1,4.6,18.6,4.5c7.7-0.1,12.6-7,17.3-13.9c5.4-7.9,7.7-15.6,7.8-16
		c-0.2-0.1-15-5.8-15.1-22.8c-0.1-14.3,11.7-21.1,12.2-21.5C92.8,34.6,82.4,33.5,78.8,33.3"/>
</g>
<g id="XMLID_2_">
	<path id="XMLID_3_" fill="none" stroke="#E2E2E2" stroke-width="4" stroke-miterlimit="10" d="M73,24c3.9-4.8,6.6-11.4,5.9-18
		c-5.7,0.2-12.6,3.8-16.6,8.6c-3.6,4.2-6.9,11-6,17.5C62.6,32.5,69.1,28.8,73,24"/>
</g>
</svg>
