<?xml version="1.0" encoding="utf-8"?>
<!-- Generator: Adobe Illustrator 19.0.0, SVG Export Plug-In . SVG Version: 6.00 Build 0)  -->
<!DOCTYPE svg PUBLIC "-//W3C//DTD SVG 1.1//EN" "http://www.w3.org/Graphics/SVG/1.1/DTD/svg11.dtd">
<svg version="1.1" id="Layer_1" xmlns="http://www.w3.org/2000/svg" xmlns:xlink="http://www.w3.org/1999/xlink" x="0px" y="0px"
	 viewBox="-365 235.9 109.5 124.4" style="enable-background:new -365 235.9 109.5 124.4;" xml:space="preserve">
<style type="text/css">
	.st0{fill:none;stroke:#E2E2E2;stroke-width:4;stroke-miterlimit:10;}
</style>
<path class="st0" d="M-289.2,331.8h-42.1c-7.2,0-13.1-5.9-13.1-13.1v-42.1c0-7.2,5.9-13.1,13.1-13.1h42.1c7.2,0,13.1,5.9,13.1,13.1
	v42.1C-276.1,326-282,331.8-289.2,331.8z"/>
<g>
	<line class="st0" x1="-330.3" y1="258.7" x2="-330.3" y2="248.8"/>
	<line class="st0" x1="-322.4" y1="258.7" x2="-322.4" y2="248.8"/>
	<line class="st0" x1="-314.5" y1="258.7" x2="-314.5" y2="248.8"/>
	<line class="st0" x1="-306.7" y1="258.7" x2="-306.7" y2="248.8"/>
	<line class="st0" x1="-298.8" y1="258.7" x2="-298.8" y2="248.8"/>
	<line class="st0" x1="-290.9" y1="258.7" x2="-290.9" y2="248.8"/>
</g>
<g>
	<line class="st0" x1="-270.9" y1="275.9" x2="-261" y2="275.9"/>
	<line class="st0" x1="-270.9" y1="283.7" x2="-261" y2="283.7"/>
	<line class="st0" x1="-270.9" y1="291.6" x2="-261" y2="291.6"/>
	<line class="st0" x1="-270.9" y1="299.5" x2="-261" y2="299.5"/>
	<line class="st0" x1="-270.9" y1="307.4" x2="-261" y2="307.4"/>
	<line class="st0" x1="-270.9" y1="315.3" x2="-261" y2="315.3"/>
</g>
<g>
	<line class="st0" x1="-359.5" y1="275.9" x2="-349.6" y2="275.9"/>
	<line class="st0" x1="-359.5" y1="283.7" x2="-349.6" y2="283.7"/>
	<line class="st0" x1="-359.5" y1="291.6" x2="-349.6" y2="291.6"/>
	<line class="st0" x1="-359.5" y1="299.5" x2="-349.6" y2="299.5"/>
	<line class="st0" x1="-359.5" y1="307.4" x2="-349.6" y2="307.4"/>
	<line class="st0" x1="-359.5" y1="315.3" x2="-349.6" y2="315.3"/>
</g>
<g>
	<line class="st0" x1="-330.3" y1="347.2" x2="-330.3" y2="337.3"/>
	<line class="st0" x1="-322.4" y1="347.2" x2="-322.4" y2="337.3"/>
	<line class="st0" x1="-314.5" y1="347.2" x2="-314.5" y2="337.3"/>
	<line class="st0" x1="-306.7" y1="347.2" x2="-306.7" y2="337.3"/>
	<line class="st0" x1="-298.8" y1="347.2" x2="-298.8" y2="337.3"/>
	<line class="st0" x1="-290.9" y1="347.2" x2="-290.9" y2="337.3"/>
</g>
</svg>
