<?xml version="1.0" encoding="utf-8"?>
<!-- Generator: Adobe Illustrator 19.2.0, SVG Export Plug-In . SVG Version: 6.00 Build 0)  -->
<!DOCTYPE svg PUBLIC "-//W3C//DTD SVG 1.1//EN" "http://www.w3.org/Graphics/SVG/1.1/DTD/svg11.dtd">
<svg version="1.1" id="Layer_1" xmlns="http://www.w3.org/2000/svg" xmlns:xlink="http://www.w3.org/1999/xlink" x="0px" y="0px"
	 viewBox="0 0 160 160" style="enable-background:new 0 0 160 160;" xml:space="preserve">
<g>
	<g>
		<path d="M80.8,150.6c-39.1,0-70.9-31.8-70.9-70.9c0-39.1,31.8-70.9,70.9-70.9s70.9,31.8,70.9,70.9
			C151.7,118.8,119.9,150.6,80.8,150.6z M80.8,9.7c-38.6,0-69.9,31.4-69.9,69.9s31.4,69.9,69.9,69.9s69.9-31.4,69.9-69.9
			S119.3,9.7,80.8,9.7z"/>
	</g>
	<g>
		<polygon points="67,149 66,149 66,37.5 96,54.2 96,148 95,148 95,54.8 67,39.2 		"/>
	</g>
	<g>
		<rect x="70" y="56" width="11" height="1"/>
	</g>
	<g>
		<rect x="75" y="71" width="11" height="1"/>
	</g>
	<g>
		<rect x="82" y="86" width="10" height="1"/>
	</g>
	<g>
		<rect x="75" y="101" width="11" height="1"/>
	</g>
	<g>
		<rect x="80" y="116" width="11" height="1"/>
	</g>
	<g>
		<rect x="69" y="131" width="9" height="1"/>
	</g>
	<g>
		<polygon points="54,144 53,144 53,94 32,94 32,130 31,130 31,93 54,93 		"/>
	</g>
	<g>
		<polygon points="113,142 112,142 112,113 135,113 135,124 134,124 134,114 113,114 		"/>
	</g>
	<g>
		<polygon points="116,113.7 115,113.3 123.5,92.1 131.5,113.3 130.5,113.7 123.5,94.9 		"/>
	</g>
	<g>
		<rect x="113.4" y="103" transform="matrix(1.171795e-02 -0.9999 0.9999 1.171795e-02 18.4364 225.6537)" width="20" height="1"/>
	</g>
	<g>
		<path d="M123.5,94c-1.9,0-3.4-1.5-3.4-3.4s1.5-3.4,3.4-3.4s3.4,1.5,3.4,3.4S125.4,94,123.5,94z M123.5,88.3
			c-1.3,0-2.4,1.1-2.4,2.4s1.1,2.4,2.4,2.4s2.4-1.1,2.4-2.4S124.8,88.3,123.5,88.3z"/>
	</g>
	<g>
		<path d="M47.8,94H37.2V79.2h10.5V94z M38.2,93h8.5V80.2h-8.5V93z"/>
	</g>
	<g>
		<rect x="42" y="65" width="1" height="15"/>
	</g>
	<g>
		<rect x="66" y="25" width="1" height="13"/>
	</g>
</g>
</svg>
