<?xml version="1.0" encoding="UTF-8" standalone="no"?>
<svg width="279px" height="295px" viewBox="0 0 279 295" version="1.1" xmlns="http://www.w3.org/2000/svg" xmlns:xlink="http://www.w3.org/1999/xlink" xmlns:sketch="http://www.bohemiancoding.com/sketch/ns">
    <!-- Generator: Sketch 3.3.1 (12002) - http://www.bohemiancoding.com/sketch -->
    <title>Group Copy</title>
    <desc>Created with Sketch.</desc>
    <defs></defs>
    <g id="Home" stroke="none" stroke-width="1" fill="none" fill-rule="evenodd" sketch:type="MSPage">
        <g id="Landing---Touch-up---3" sketch:type="MSArtboardGroup" transform="translate(-581.248001, -212.675208)">
            <g id="Group-Copy" sketch:type="MSLayerGroup" transform="translate(581.000000, 212.000000)">
                <path d="M36.1487251,2.48480175 C36.1487251,2.48480175 21.3710606,8.35688582 12.8634697,17.5269452 C4.35587876,26.6970047 0.76093943,32.3516041 0.76093943,42.2439072 C0.76093943,52.1362102 2.49033542,63.0926729 2.49033542,69.4359736 C2.49033542,84.5414149 0.76093943,85.7456952 0.76093943,99.9276385 C0.76093943,114.109582 2.01381954,137.283052 32.711814,137.283052 C63.4098084,137.283052 106.831103,137.283052 106.831103,137.283052 C106.831103,137.283052 121.890784,137.339858 127.839129,124.414132 C133.787473,111.488405 131.82225,91.1430461 131.82225,91.1430461" id="Path-74" stroke="#535353" sketch:type="MSShapeGroup"></path>
                <path d="M36.1487251,159.54114 C36.1487251,159.54114 21.3710606,165.413224 12.8634697,174.583283 C4.35587876,183.753343 0.76093943,189.407942 0.76093943,199.300245 C0.76093943,209.192548 2.49033542,220.149011 2.49033542,226.492312 C2.49033542,241.597753 0.76093943,242.802033 0.76093943,256.983976 C0.76093943,271.16592 2.01381954,294.33939 32.711814,294.33939 C63.4098084,294.33939 106.831103,294.33939 106.831103,294.33939 C106.831103,294.33939 121.890784,294.396196 127.839129,281.47047 C133.787473,268.544743 131.82225,248.199384 131.82225,248.199384" id="Path-74-Copy-2" stroke="#535353" sketch:type="MSShapeGroup"></path>
                <path d="M181.954525,3.31578767 C181.954525,3.31578767 167.176861,9.18787174 158.66927,18.3579312 C150.161679,27.5279906 146.566739,33.18259 146.566739,43.0748931 C146.566739,52.9671961 148.296135,63.9236589 148.296135,70.2669595 C148.296135,85.3724008 146.566739,86.5766812 146.566739,100.758624 C146.566739,114.940568 147.819619,138.114038 178.517614,138.114038 C209.215608,138.114038 252.636903,138.114038 252.636903,138.114038 C252.636903,138.114038 267.696584,138.170844 273.644928,125.245118 C279.593273,112.319391 277.62805,91.9740321 277.62805,91.9740321" id="Path-74-Copy" stroke="#535353" sketch:type="MSShapeGroup"></path>
                <path d="M181.954525,160.372126 C181.954525,160.372126 167.176861,166.24421 158.66927,175.414269 C150.161679,184.584329 146.566739,190.238928 146.566739,200.131231 C146.566739,210.023534 148.296135,220.979997 148.296135,227.323298 C148.296135,242.428739 146.566739,243.633019 146.566739,257.814962 C146.566739,271.996906 147.819619,295.170376 178.517614,295.170376 C209.215608,295.170376 252.636903,295.170376 252.636903,295.170376 C252.636903,295.170376 267.696584,295.227182 273.644928,282.301456 C279.593273,269.375729 277.62805,249.03037 277.62805,249.03037" id="Path-74-Copy-3" stroke="#535353" sketch:type="MSShapeGroup"></path>
                <path d="M21.0582458,58.5536288 C21.0582458,48.7644718 19.6925401,33.6919963 19.6925401,33.6919963 C18.3369433,15.5263078 32.011136,0.800107653 50.2389199,0.800107653 L100.416214,0.800107653 C118.642111,0.800107653 132.653261,15.560621 131.712127,33.7467289 L130.428366,58.5536288 L131.712127,83.3605286 C132.653768,101.556445 118.643998,116.30715 100.416214,116.30715 L50.2389199,116.30715 C32.0130234,116.30715 18.3867997,101.573766 19.7127187,83.3992002 C19.7127187,83.3992002 21.0582458,68.9811733 21.0582458,58.5536288 Z" id="Rectangle-130" stroke="#535353" sketch:type="MSShapeGroup"></path>
                <path d="M21.0582458,215.609967 C21.0582458,205.82081 19.6925401,190.748334 19.6925401,190.748334 C18.3369433,172.582646 32.011136,157.856446 50.2389199,157.856446 L100.416214,157.856446 C118.642111,157.856446 132.653261,172.616959 131.712127,190.803067 L130.428366,215.609967 L131.712127,240.416867 C132.653768,258.612783 118.643998,273.363488 100.416214,273.363488 L50.2389199,273.363488 C32.0130234,273.363488 18.3867997,258.630104 19.7127187,240.455538 C19.7127187,240.455538 21.0582458,226.037511 21.0582458,215.609967 Z" id="Rectangle-130-Copy-2" stroke="#535353" sketch:type="MSShapeGroup"></path>
                <path d="M166.864046,59.3846147 C166.864046,49.5954578 165.49834,34.5229823 165.49834,34.5229823 C164.142743,16.3572937 177.816936,1.63109357 196.04472,1.63109357 L246.222014,1.63109357 C264.447911,1.63109357 278.459061,16.3916069 277.517927,34.5777148 L276.234166,59.3846147 L277.517927,84.1915145 C278.459568,102.387431 264.449798,117.138136 246.222014,117.138136 L196.04472,117.138136 C177.818823,117.138136 164.1926,102.404752 165.518519,84.2301861 C165.518519,84.2301861 166.864046,69.8121593 166.864046,59.3846147 Z" id="Rectangle-130-Copy" stroke="#535353" sketch:type="MSShapeGroup"></path>
                <path d="M166.864046,216.440953 C166.864046,206.651796 165.49834,191.57932 165.49834,191.57932 C164.142743,173.413632 177.816936,158.687432 196.04472,158.687432 L246.222014,158.687432 C264.447911,158.687432 278.459061,173.447945 277.517927,191.634053 L276.234166,216.440953 L277.517927,241.247853 C278.459568,259.443769 264.449798,274.194474 246.222014,274.194474 L196.04472,274.194474 C177.818823,274.194474 164.1926,259.46109 165.518519,241.286524 C165.518519,241.286524 166.864046,226.868497 166.864046,216.440953 Z" id="Rectangle-130-Copy-3" stroke="#535353" sketch:type="MSShapeGroup"></path>
                <path d="M64.4648209,24.8807745 C63.1868444,24.0675167 61.6474866,23.3994935 59.8467015,22.8766849 C58.0459164,22.3538763 56.1773878,22.092476 54.2410597,22.092476 C52.2660051,22.092476 50.4168395,22.4506913 48.6935075,23.1671327 C46.9701755,23.8835741 45.4598622,24.9485385 44.1625224,26.362058 C42.8651826,27.7755775 41.8486256,29.5182467 41.1128209,31.5901177 C40.3770162,33.6619888 40.0091194,36.0339551 40.0091194,38.7060879 C40.0091194,41.262041 40.3479717,43.5565553 41.0256866,45.5896998 C41.7034014,47.6228443 42.6715509,49.3461505 43.9301642,50.75967 C45.1887774,52.1731895 46.6990907,53.257517 48.4611493,54.0126849 C50.2232078,54.7678529 52.1885513,55.1454312 54.3572388,55.1454312 C56.3322935,55.1454312 58.1911405,54.8743493 59.9338358,54.3321774 C61.6765311,53.7900056 63.1674814,53.0735749 64.4067313,52.182864 L64.9876269,54.4483565 C63.7483769,55.2616143 62.2090191,55.9490005 60.3695075,56.5105357 C58.5299958,57.0720708 56.5065633,57.3528342 54.2991493,57.3528342 C51.7044696,57.3528342 49.3712293,56.9171669 47.2993582,56.0458192 C45.2274872,55.1744716 43.465455,53.9352402 42.013209,52.3280879 C40.5609629,50.7209356 39.4475909,48.7652735 38.6730597,46.4610431 C37.8985285,44.1568127 37.5112687,41.5718535 37.5112687,38.7060879 C37.5112687,35.8403223 37.927573,33.2456816 38.760194,30.9220879 C39.5928151,28.5984942 40.764276,26.6234692 42.2746119,24.9969536 C43.7849479,23.370438 45.566343,22.1118436 47.6188507,21.2211327 C49.6713585,20.3304217 51.9174654,19.885073 54.3572388,19.885073 C56.7195591,19.885073 58.830125,20.1948808 60.689,20.8145058 C62.547875,21.4341308 64.0581882,22.0924725 65.2199851,22.7895506 L64.4648209,24.8807745 Z" id="C" fill="#535353" sketch:type="MSShapeGroup"></path>
                <path d="M67.4273881,195.413889 C67.4273881,198.357107 66.9820393,200.971111 66.0913284,203.255978 C65.2006174,205.540845 63.9129786,207.467463 62.2283731,209.035889 C60.5437677,210.604314 58.4912907,211.795138 56.0708806,212.608396 C53.6504705,213.421654 50.9106073,213.828277 47.851209,213.828277 L39.4282239,213.828277 L39.4282239,177.522307 L48.1997463,177.522307 C51.142965,177.522307 53.7956947,177.957974 56.1580149,178.829321 C58.5203352,179.700669 60.5340862,180.920537 62.1993284,182.488963 C63.8645705,184.057389 65.1522094,185.945281 66.0622836,188.152695 C66.9723578,190.360109 67.4273881,192.780482 67.4273881,195.413889 L67.4273881,195.413889 Z M64.9295373,195.646247 C64.9295373,193.2452 64.5422775,191.066864 63.7677463,189.111172 C62.993215,187.155481 61.8798431,185.480582 60.427597,184.086426 C58.9753509,182.69227 57.2036373,181.617624 55.112403,180.862456 C53.0211686,180.107288 50.6395208,179.72971 47.9673881,179.72971 L41.8679851,179.72971 L41.8679851,211.620874 L47.9673881,211.620874 C50.445888,211.620874 52.7210394,211.301384 54.7929104,210.662396 C56.8647815,210.023408 58.6558581,209.055258 60.166194,207.757918 C61.6765299,206.460579 62.8479909,204.805043 63.6806119,202.791262 C64.513233,200.777481 64.9295373,198.395833 64.9295373,195.646247 L64.9295373,195.646247 Z" id="D" fill="#535353" sketch:type="MSShapeGroup"></path>
                <path d="M218.1708,39.3628052 C218.1708,42.1898442 217.735133,44.7554404 216.863785,47.0596708 C215.992437,49.3639012 214.772569,51.3389263 213.204143,52.9848052 C211.635717,54.630684 209.786552,55.9086414 207.656591,56.8187156 C205.52663,57.7287898 203.203071,58.1838201 200.685845,58.1838201 C198.284798,58.1838201 196.029009,57.7191083 193.918412,56.7896708 C191.807814,55.8602333 189.96833,54.5725945 188.399904,52.9267156 C186.831479,51.2808367 185.592247,49.3058117 184.682173,47.0015813 C183.772099,44.6973508 183.317069,42.1898436 183.317069,39.4789843 C183.317069,36.6519452 183.752736,34.086349 184.624083,31.7821186 C185.495431,29.4778882 186.7153,27.5028631 188.283725,25.8569843 C189.852151,24.2111054 191.701317,22.9428295 193.831278,22.0521186 C195.961238,21.1614077 198.284797,20.7160589 200.802024,20.7160589 C203.203071,20.7160589 205.458859,21.1710892 207.569457,22.0811634 C209.680054,22.9912376 211.519538,24.2788764 213.087964,25.9441186 C214.65639,27.6093607 215.895621,29.5747043 216.805695,31.8402081 C217.71577,34.105712 218.1708,36.6132193 218.1708,39.3628052 L218.1708,39.3628052 Z M215.672949,39.4789843 C215.672949,37.0392109 215.285689,34.8027855 214.511158,32.769641 C213.736627,30.7364965 212.681344,28.9841458 211.345278,27.5125365 C210.009211,26.0409271 208.421446,24.8985107 206.581934,24.0852529 C204.742423,23.2719951 202.757716,22.8653723 200.627755,22.8653723 C198.497794,22.8653723 196.522769,23.2719951 194.702621,24.0852529 C192.882472,24.8985107 191.31407,26.0312457 189.997367,27.4834917 C188.680664,28.9357378 187.654425,30.6687254 186.918621,32.6825066 C186.182816,34.6962879 185.814919,36.9230318 185.814919,39.3628052 C185.814919,41.8025785 186.202179,44.0390039 186.97671,46.0721484 C187.751242,48.1052929 188.806525,49.8576436 190.142591,51.3292529 C191.478657,52.8008623 193.066423,53.9529602 194.905934,54.7855813 C196.745446,55.6182023 198.730152,56.0345066 200.860113,56.0345066 C202.990074,56.0345066 204.965099,55.6278838 206.785248,54.814626 C208.605396,54.0013682 210.173798,52.8589518 211.490501,51.3873425 C212.807205,49.9157331 213.833443,48.173064 214.569248,46.1592828 C215.305052,44.1455015 215.672949,41.9187576 215.672949,39.4789843 L215.672949,39.4789843 Z" id="O" fill="#535353" sketch:type="MSShapeGroup"></path>
                <path d="M185.234024,214.659263 L185.234024,178.353292 L206.030083,178.353292 L206.030083,180.560695 L187.673785,180.560695 L187.673785,195.431621 L203.009427,195.431621 L203.009427,197.580934 L187.673785,197.580934 L187.673785,212.45186 L206.030083,212.45186 L206.030083,214.659263 L185.234024,214.659263 Z" id="E" fill="#535353" sketch:type="MSShapeGroup"></path>
            </g>
        </g>
    </g>
</svg>