<?xml version="1.0" encoding="UTF-8" standalone="no"?>
<svg width="98px" height="98px" viewBox="0 0 98 98" version="1.1" xmlns="http://www.w3.org/2000/svg" xmlns:xlink="http://www.w3.org/1999/xlink" xmlns:sketch="http://www.bohemiancoding.com/sketch/ns">
    <!-- Generator: Sketch 3.3.1 (12002) - http://www.bohemiancoding.com/sketch -->
    <title>Group + Oval 118</title>
    <desc>Created with Sketch.</desc>
    <defs></defs>
    <g id="Home" stroke="none" stroke-width="1" fill="none" fill-rule="evenodd" sketch:type="MSPage">
        <g id="Enquiry-form" sketch:type="MSArtboardGroup" transform="translate(-671.000000, -160.000000)" stroke="#000000">
            <g id="Group-+-Oval-118" sketch:type="MSLayerGroup" transform="translate(672.000000, 161.000000)">
                <g id="Group" transform="translate(31.000000, 11.000000)" sketch:type="MSShapeGroup">
                    <path d="M26.3371862,60.734375 C26.4153104,58.5426367 26.4559271,56.1958271 26.4559271,53.6865179 C26.4559271,28.5626901 17.3617021,8.984375 17.3617021,8.984375 C17.3617021,8.984375 8.2674772,28.5626901 8.2674772,53.6865179 C8.2674772,56.1958271 8.30809388,58.5426367 8.38621801,60.734375 L26.3371862,60.734375 Z" id="Oval-116"></path>
                    <path d="M17.4231632,9.42868042 L17.4231632,0.00514576751" id="Path-565"></path>
                    <ellipse id="Oval-117" cx="17.3617021" cy="40.0446429" rx="4.1337386" ry="4.10714286"></ellipse>
                    <path d="M8.34458112,48.0039368 L2.23308682,53.6767273 L0.699384973,68.5514832 L8.14889461,60.5195923" id="Path-566"></path>
                    <path d="M26.3548039,48.0039368 L32.4662982,53.6767273 L34,68.5514832 L26.5504904,60.5195923" id="Path-566-Copy"></path>
                </g>
                <circle id="Oval-118" sketch:type="MSShapeGroup" cx="48" cy="48" r="48"></circle>
            </g>
        </g>
    </g>
</svg>