<?xml version="1.0" encoding="utf-8"?>
<!-- Generator: Adobe Illustrator 19.0.0, SVG Export Plug-In . SVG Version: 6.00 Build 0)  -->
<!DOCTYPE svg PUBLIC "-//W3C//DTD SVG 1.1//EN" "http://www.w3.org/Graphics/SVG/1.1/DTD/svg11.dtd">
<svg version="1.1" id="Layer_1" xmlns="http://www.w3.org/2000/svg" xmlns:xlink="http://www.w3.org/1999/xlink" x="0px" y="0px"
	 viewBox="-363 234.3 115 127" style="enable-background:new -363 234.3 115 127;" xml:space="preserve">
<style type="text/css">
	.st0{fill-rule:evenodd;clip-rule:evenodd;fill:#E2E2E2;}
</style>
<g>
	<path class="st0" d="M-288.5,268.6c-0.7-2.4-1.7-4.6-2.7-6.7c-3.2,2.3-7.4,3.9-12.1,4.5c-0.6,0.1-1.2,0.1-1.8,0.2
		c0.2,2.7,0.6,5.6,1.4,8.3c0.2,0.9,0.5,1.8,0.8,2.7c6-0.6,11.3-2.7,15.4-6C-288,270.5-288.2,269.5-288.5,268.6z"/>
	<path class="st0" d="M-306.9,266.5c-2.8,0-5.4-0.4-7.7-1.1c-0.4,2.9-0.5,6-0.1,9.2c0.1,0.7,0.2,1.4,0.4,2c1.9,0.5,3.8,0.8,5.9,0.9
		c1.1,0.1,2.2,0.1,3.3,0.1c-0.3-1-0.6-2.1-0.9-3.3C-306.7,271.7-306.9,269.1-306.9,266.5z"/>
	<path class="st0" d="M-292.3,260.1c-2.1-3.6-4.7-6.6-7.4-8.7c-0.9,0.5-1.9,1-3,1.4c-0.3,0.1-0.7,0.2-1,0.3
		c-1.2,3.3-1.8,7.3-1.7,11.5c0.1,0,0.2,0,0.3,0C-300.1,263.9-295.6,262.3-292.3,260.1z"/>
	<path class="st0" d="M-290.7,258.9c1.9-1.5,3.3-3.2,4.2-5c-3-3-6.6-5-10.3-5.9c-0.2,1.1-1.1,2.3-2.6,3.2
		C-296.3,252.7-293.2,255.4-290.7,258.9z"/>
	<path class="st0" d="M-298.5,243.1c-13.8,0-25,11.2-25,25s11.2,25,25,25c13.8,0,25-11.2,25-25S-284.7,243.1-298.5,243.1z
		 M-285.6,283.8c-0.5,2.1-1.3,3.9-2.4,5.5c0.5-1.4,0.8-2.9,1-4.6c-1.2,0.8-2.5,1.4-3.9,2c-2,0.8-4.1,1.3-6.2,1.5c1,1,2,1.9,3,2.5
		c-1.7-0.2-3.3-1.1-4.9-2.4c-1.6,0-3.1-0.1-4.6-0.4c1.3,0,2.5-0.1,3.8-0.3c-1.9-1.9-3.5-4.5-4.8-7.6c-0.3,0-0.6,0-0.9,0
		c-3.1-0.2-6.1-1-8.8-2.1c0.7,3.1,1.9,5.8,3.4,8.1c-2.3-2.1-4.1-5.2-5.1-8.9c-0.9-0.5-1.7-0.9-2.5-1.5c0.8,0.3,1.5,0.6,2.3,0.8
		c-0.2-0.8-0.4-1.7-0.5-2.6c-0.4-3-0.3-6,0.3-8.7c-1.8-0.7-3.4-1.6-4.7-2.7c1.5,0.8,3.2,1.4,5,1.8c1.1-4.3,3.3-7.9,6.3-9.8
		c-2.3,2.4-3.9,6-4.8,10.1c2.4,0.4,4.9,0.6,7.6,0.4c0.2-4.4,1.2-8.5,2.9-11.6c-2,0.4-3.9,0.3-5.1-0.2c1.2,0.1,2.8-0.1,4.4-0.6
		c0.6-0.2,1.1-0.4,1.6-0.6c0-0.1,0.1-0.1,0.1-0.2c0,0.1-0.1,0.1-0.1,0.2c2.4-1.1,4-2.7,3.6-4c-0.5-1.5-3.6-1.8-7-0.8
		c-0.8,0.2-1.5,0.5-2.1,0.9c1-0.8,2.3-1.4,3.8-1.9c3.8-1.2,7.3-0.6,7.9,1.3c0.1,0.2,0.1,0.4,0.1,0.6c3.8,0,7.7,1.5,11,4.2
		c0.3-1,0.4-2.1,0.2-3.2c0,0,0,0,0-0.1c0.2,0.6,0.4,1.3,0.5,2c0.1,0.6,0.1,1.3,0,1.9c0.9,0.8,1.8,1.8,2.5,2.8
		c0.9,1.2,1.7,2.6,2.2,3.9c0.1-0.5,0.2-1.1,0.2-1.6c0.1-1.2,0-2.4-0.1-3.6c0.4,1.8,0.6,3.7,0.4,5.7c0,0.2,0,0.5-0.1,0.7
		c1.3,3.6,1.4,7.4,0.4,10.7c0.1-2.4-0.2-5-1-7.5c-0.9,3.2-2.5,6.1-4.8,8.5c0.5,2.9,0.6,5.8,0.3,8.4c5.8-5.1,8.7-12.1,7.2-18.5
		C-275,269.9-278.3,278.6-285.6,283.8z"/>
	<path class="st0" d="M-302.2,279.8c1.2,2.9,2.7,5.4,4.3,7.3c1.4-0.3,2.8-0.7,4.2-1.3c2.6-1,4.9-2.3,7-3.9c0.1-2.5-0.1-5.2-0.5-8
		C-291.2,277.4-296.4,279.5-302.2,279.8z"/>
	<path class="st0" d="M-284.1,256.8c-0.5-0.7-1-1.3-1.6-1.9c-0.7,2.1-2.1,4-4,5.7c1.2,2,2.3,4.3,3.1,6.8c0.3,0.8,0.5,1.6,0.7,2.4
		c2.2-2.2,3.8-4.8,4.8-7.6C-281.8,260.3-282.8,258.5-284.1,256.8z"/>
</g>
<path class="st0" d="M-325.5,262.7c-2.3,3.7-11.4,16.9-5.4,33.9c2.7,7.5,13.6,16.9,16.1,19.6c3.6,3.8,18.2,19,12.7,37.7
	c5.7-4.7,8.3-20.3,5-29.7c-1.3-3.7-7.1-18.4-1-29.7c-3.8,0.8-8.8,6.7-9.4,13.2c-1.2-6.7-3.4-9.1-8.5-14.3
	C-317.6,291.6-328.6,284.7-325.5,262.7"/>
</svg>
