<?xml version="1.0" encoding="utf-8"?>
<!-- Generator: Adobe Illustrator 19.2.0, SVG Export Plug-In . SVG Version: 6.00 Build 0)  -->
<!DOCTYPE svg PUBLIC "-//W3C//DTD SVG 1.1//EN" "http://www.w3.org/Graphics/SVG/1.1/DTD/svg11.dtd">
<svg version="1.1" id="Layer_1" xmlns="http://www.w3.org/2000/svg" xmlns:xlink="http://www.w3.org/1999/xlink" x="0px" y="0px"
	 viewBox="0 0 160 160" style="enable-background:new 0 0 160 160;" xml:space="preserve">
<g>
	<path d="M80.8,150.6c-39.1,0-70.9-31.8-70.9-70.9c0-39.1,31.8-70.9,70.9-70.9s70.9,31.8,70.9,70.9
		C151.7,118.8,119.9,150.6,80.8,150.6z M80.8,9.7c-38.6,0-69.9,31.4-69.9,69.9s31.4,69.9,69.9,69.9s69.9-31.4,69.9-69.9
		S119.3,9.7,80.8,9.7z"/>
</g>
<g>
	<path d="M102.9,115.3H57.1V38.5h45.8V115.3z M58.1,114.3h43.8V39.5H58.1V114.3z"/>
</g>
<g>
	<path d="M99.2,129H60.8c-4.1,0-7.4-3.3-7.4-7.4V33.9c0-4.1,3.3-7.4,7.4-7.4h38.5c4.1,0,7.4,3.3,7.4,7.4v87.6
		C106.7,125.7,103.3,129,99.2,129z M60.8,27.5c-3.5,0-6.4,2.9-6.4,6.4v87.6c0,3.5,2.9,6.4,6.4,6.4h38.5c3.5,0,6.4-2.9,6.4-6.4V33.9
		c0-3.5-2.9-6.4-6.4-6.4H60.8z"/>
</g>
<g>
	<path d="M69.1,56.5h-5.4c-1.9,0-3.4-1.5-3.4-3.4v-5.4c0-1.9,1.5-3.4,3.4-3.4h5.4c1.9,0,3.4,1.5,3.4,3.4v5.4
		C72.5,55,71,56.5,69.1,56.5z M63.7,45.3c-1.3,0-2.4,1.1-2.4,2.4v5.4c0,1.3,1.1,2.4,2.4,2.4h5.4c1.3,0,2.4-1.1,2.4-2.4v-5.4
		c0-1.3-1.1-2.4-2.4-2.4H63.7z"/>
</g>
<g>
	<path d="M82.7,56.5h-5.4c-1.9,0-3.4-1.5-3.4-3.4v-5.4c0-1.9,1.5-3.4,3.4-3.4h5.4c1.9,0,3.4,1.5,3.4,3.4v5.4
		C86.1,55,84.6,56.5,82.7,56.5z M77.3,45.3c-1.3,0-2.4,1.1-2.4,2.4v5.4c0,1.3,1.1,2.4,2.4,2.4h5.4c1.3,0,2.4-1.1,2.4-2.4v-5.4
		c0-1.3-1.1-2.4-2.4-2.4H77.3z"/>
</g>
<g>
	<path d="M96.3,56.5h-5.4c-1.9,0-3.4-1.5-3.4-3.4v-5.4c0-1.9,1.5-3.4,3.4-3.4h5.4c1.9,0,3.4,1.5,3.4,3.4v5.4
		C99.7,55,98.2,56.5,96.3,56.5z M90.9,45.3c-1.3,0-2.4,1.1-2.4,2.4v5.4c0,1.3,1.1,2.4,2.4,2.4h5.4c1.3,0,2.4-1.1,2.4-2.4v-5.4
		c0-1.3-1.1-2.4-2.4-2.4H90.9z"/>
</g>
<g>
	<path d="M69.1,69.8h-5.4c-1.9,0-3.4-1.5-3.4-3.4V61c0-1.9,1.5-3.4,3.4-3.4h5.4c1.9,0,3.4,1.5,3.4,3.4v5.4
		C72.5,68.3,71,69.8,69.1,69.8z M63.7,58.6c-1.3,0-2.4,1.1-2.4,2.4v5.4c0,1.3,1.1,2.4,2.4,2.4h5.4c1.3,0,2.4-1.1,2.4-2.4V61
		c0-1.3-1.1-2.4-2.4-2.4H63.7z"/>
</g>
<g>
	<path d="M82.7,69.8h-5.4c-1.9,0-3.4-1.5-3.4-3.4V61c0-1.9,1.5-3.4,3.4-3.4h5.4c1.9,0,3.4,1.5,3.4,3.4v5.4
		C86.1,68.3,84.6,69.8,82.7,69.8z M77.3,58.6c-1.3,0-2.4,1.1-2.4,2.4v5.4c0,1.3,1.1,2.4,2.4,2.4h5.4c1.3,0,2.4-1.1,2.4-2.4V61
		c0-1.3-1.1-2.4-2.4-2.4H77.3z"/>
</g>
<g>
	<path d="M96.3,69.8h-5.4c-1.9,0-3.4-1.5-3.4-3.4V61c0-1.9,1.5-3.4,3.4-3.4h5.4c1.9,0,3.4,1.5,3.4,3.4v5.4
		C99.7,68.3,98.2,69.8,96.3,69.8z M90.9,58.6c-1.3,0-2.4,1.1-2.4,2.4v5.4c0,1.3,1.1,2.4,2.4,2.4h5.4c1.3,0,2.4-1.1,2.4-2.4V61
		c0-1.3-1.1-2.4-2.4-2.4H90.9z"/>
</g>
<g>
	<path d="M69.1,83.2h-5.4c-1.9,0-3.4-1.5-3.4-3.4v-5.4c0-1.9,1.5-3.4,3.4-3.4h5.4c1.9,0,3.4,1.5,3.4,3.4v5.4
		C72.5,81.7,71,83.2,69.1,83.2z M63.7,72c-1.3,0-2.4,1.1-2.4,2.4v5.4c0,1.3,1.1,2.4,2.4,2.4h5.4c1.3,0,2.4-1.1,2.4-2.4v-5.4
		c0-1.3-1.1-2.4-2.4-2.4H63.7z"/>
</g>
<g>
	<path d="M82.7,82.7h-5.4c-1.6,0-2.9-1.3-2.9-2.9v-5.4c0-1.6,1.3-2.9,2.9-2.9h5.4c1.6,0,2.9,1.3,2.9,2.9v5.4
		C85.6,81.4,84.3,82.7,82.7,82.7z"/>
	<path d="M82.7,83.2h-5.4c-1.9,0-3.4-1.5-3.4-3.4v-5.4c0-1.9,1.5-3.4,3.4-3.4h5.4c1.9,0,3.4,1.5,3.4,3.4v5.4
		C86.1,81.7,84.6,83.2,82.7,83.2z M77.3,72c-1.3,0-2.4,1.1-2.4,2.4v5.4c0,1.3,1.1,2.4,2.4,2.4h5.4c1.3,0,2.4-1.1,2.4-2.4v-5.4
		c0-1.3-1.1-2.4-2.4-2.4H77.3z"/>
</g>
<g>
	<path d="M96.3,83.2h-5.4c-1.9,0-3.4-1.5-3.4-3.4v-5.4c0-1.9,1.5-3.4,3.4-3.4h5.4c1.9,0,3.4,1.5,3.4,3.4v5.4
		C99.7,81.7,98.2,83.2,96.3,83.2z M90.9,72c-1.3,0-2.4,1.1-2.4,2.4v5.4c0,1.3,1.1,2.4,2.4,2.4h5.4c1.3,0,2.4-1.1,2.4-2.4v-5.4
		c0-1.3-1.1-2.4-2.4-2.4H90.9z"/>
</g>
<g>
	<path d="M69.1,96.5h-5.4c-1.9,0-3.4-1.5-3.4-3.4v-5.4c0-1.9,1.5-3.4,3.4-3.4h5.4c1.9,0,3.4,1.5,3.4,3.4v5.4
		C72.5,95,71,96.5,69.1,96.5z M63.7,85.3c-1.3,0-2.4,1.1-2.4,2.4v5.4c0,1.3,1.1,2.4,2.4,2.4h5.4c1.3,0,2.4-1.1,2.4-2.4v-5.4
		c0-1.3-1.1-2.4-2.4-2.4H63.7z"/>
</g>
<g>
	<path d="M82.7,96.5h-5.4c-1.9,0-3.4-1.5-3.4-3.4v-5.4c0-1.9,1.5-3.4,3.4-3.4h5.4c1.9,0,3.4,1.5,3.4,3.4v5.4
		C86.1,95,84.6,96.5,82.7,96.5z M77.3,85.3c-1.3,0-2.4,1.1-2.4,2.4v5.4c0,1.3,1.1,2.4,2.4,2.4h5.4c1.3,0,2.4-1.1,2.4-2.4v-5.4
		c0-1.3-1.1-2.4-2.4-2.4H77.3z"/>
</g>
<g>
	<path d="M96.3,96.5h-5.4c-1.9,0-3.4-1.5-3.4-3.4v-5.4c0-1.9,1.5-3.4,3.4-3.4h5.4c1.9,0,3.4,1.5,3.4,3.4v5.4
		C99.7,95,98.2,96.5,96.3,96.5z M90.9,85.3c-1.3,0-2.4,1.1-2.4,2.4v5.4c0,1.3,1.1,2.4,2.4,2.4h5.4c1.3,0,2.4-1.1,2.4-2.4v-5.4
		c0-1.3-1.1-2.4-2.4-2.4H90.9z"/>
</g>
</svg>
