<?xml version="1.0" encoding="utf-8"?>
<!-- Generator: Adobe Illustrator 19.2.0, SVG Export Plug-In . SVG Version: 6.00 Build 0)  -->
<!DOCTYPE svg PUBLIC "-//W3C//DTD SVG 1.1//EN" "http://www.w3.org/Graphics/SVG/1.1/DTD/svg11.dtd">
<svg version="1.1" id="Layer_1" xmlns="http://www.w3.org/2000/svg" xmlns:xlink="http://www.w3.org/1999/xlink" x="0px" y="0px"
	 viewBox="0 0 160 160" style="enable-background:new 0 0 160 160;" xml:space="preserve">
<g>
	<path d="M80.8,150.6c-39.1,0-70.9-31.8-70.9-70.9c0-39.1,31.8-70.9,70.9-70.9s70.9,31.8,70.9,70.9
		C151.7,118.8,119.9,150.6,80.8,150.6z M80.8,9.7c-38.6,0-69.9,31.4-69.9,69.9s31.4,69.9,69.9,69.9s69.9-31.4,69.9-69.9
		S119.3,9.7,80.8,9.7z"/>
</g>
<g>
	<path d="M104,110H58V51h46V110z M59,109h44V52H59V109z"/>
</g>
<g>
	<polygon points="51,110 17,110 17,109 50,109 50,52 16,52 16,51 51,51 	"/>
</g>
<g>
	<polygon points="145,110 110,110 110,51 145,51 145,52 111,52 111,109 145,109 	"/>
</g>
<g>
	<path d="M35.4,92.9c-1.8,0-3.3-1.5-3.3-3.3s1.5-3.3,3.3-3.3s3.3,1.5,3.3,3.3S37.2,92.9,35.4,92.9z M35.4,87.3c-1.3,0-2.3,1-2.3,2.3
		s1,2.3,2.3,2.3s2.3-1,2.3-2.3S36.6,87.3,35.4,87.3z"/>
</g>
<g>
	<polygon points="71.3,90 35,90 35,89 68.7,89 64.2,84.9 64.8,84.1 	"/>
</g>
<g>
	<path d="M91.4,72.9c-1.8,0-3.3-1.5-3.3-3.3s1.5-3.3,3.3-3.3s3.3,1.5,3.3,3.3S93.2,72.9,91.4,72.9z M91.4,67.3c-1.3,0-2.3,1-2.3,2.3
		s1,2.3,2.3,2.3s2.3-1,2.3-2.3S92.6,67.3,91.4,67.3z"/>
</g>
<g>
	<polygon points="127.3,70 91,70 91,69 124.7,69 120.2,64.9 120.8,64.1 	"/>
</g>
<g>
	<path d="M98.5,125.5H78V86.3h20.5V125.5z M79,124.5h18.5V87.3H79V124.5z"/>
</g>
</svg>
