<?xml version="1.0" encoding="utf-8"?>
<!-- Generator: Adobe Illustrator 19.0.0, SVG Export Plug-In . SVG Version: 6.00 Build 0)  -->
<!DOCTYPE svg PUBLIC "-//W3C//DTD SVG 1.1//EN" "http://www.w3.org/Graphics/SVG/1.1/DTD/svg11.dtd">
<svg version="1.1" id="Layer_1" xmlns="http://www.w3.org/2000/svg" xmlns:xlink="http://www.w3.org/1999/xlink" x="0px" y="0px"
	 viewBox="0 0 109.4628 124.3547" enable-background="new 0 0 109.4628 124.3547" xml:space="preserve">
<g>
	<path fill="#E2E2E2" d="M72.0198,124.2942l37.443-8.1341c0,0-13.5032-91.2963-13.5889-91.9225
		c-0.0857-0.6262-0.6342-0.9725-1.0865-1.0104c-0.4523-0.0377-10.0204-0.7467-10.0204-0.7467s-6.645-6.5968-7.3743-7.3268
		c-0.1772-0.1772-0.3963-0.2965-0.6331-0.376L72.0198,124.2942z"/>
	<path fill="#E2E2E2" d="M75.0605,14.7228c-0.1445,0.027-0.277,0.0563-0.3754,0.0852c-0.0822,0.0242-1.452,0.4473-3.7191,1.1484
		c-2.2196-6.3872-6.137-12.2573-13.0285-12.2573c-0.1905,0-0.3862,0.0087-0.5829,0.0194C55.3947,1.1262,52.9671,0,50.87,0
		C34.8159,0,27.146,20.0697,24.7411,30.2682c-6.2382,1.9327-10.6697,3.3068-11.2361,3.4846
		c-3.4824,1.0929-3.5917,1.2023-4.0484,4.4832C9.1109,40.72,0,111.1807,0,111.1807l70.3143,13.174L75.0605,14.7228z
		 M56.8285,19.6359c0,0.245-0.0021,0.4696-0.0039,0.6968c-3.908,1.2097-8.1525,2.5238-12.4072,3.8413
		c2.3892-9.2197,6.8663-13.6729,10.7821-15.3531C56.1863,11.295,56.8285,14.8455,56.8285,19.6359z M50.4287,4.3068
		c0.6936,0,1.3911,0.2349,2.0599,0.6949c-5.1457,2.4209-10.6602,8.519-12.9896,20.6952c-3.4039,1.0542-6.7307,2.0846-9.8072,3.0376
		C32.4205,19.4462,38.8977,4.3068,50.4287,4.3068z M53.1945,58.5917c0,0-4.1562-2.2188-9.25-2.2188
		c-7.4688,0-7.8439,4.6875-7.8439,5.8682c0,6.4443,16.7971,8.913,16.7971,24.0068c0,11.875-7.5312,19.5225-17.6875,19.5225
		c-12.1875,0-18.4194-7.585-18.4194-7.585l3.2631-10.7812c0,0,6.4062,5.5,11.8125,5.5c3.5312,0,4.9688-2.7812,4.9688-4.8125
		c0-8.4062-13.7812-8.7812-13.7812-22.5938c0-11.625,8.3438-22.875,25.1875-22.875c6.49,0,9.6959,1.8594,9.6959,1.8594
		L53.1945,58.5917z M59.6036,8.0343c3.5512,0.446,5.9168,4.4863,7.4381,9.136c-1.7823,0.5515-3.8091,1.1787-6.0062,1.8588
		c0.0014-0.423,0.0031-0.8395,0.0031-1.295C61.0386,13.7643,60.488,10.5679,59.6036,8.0343z"/>
</g>
</svg>
