<?xml version="1.0" encoding="utf-8"?>
<!-- Generator: Adobe Illustrator 19.2.0, SVG Export Plug-In . SVG Version: 6.00 Build 0)  -->
<!DOCTYPE svg PUBLIC "-//W3C//DTD SVG 1.1//EN" "http://www.w3.org/Graphics/SVG/1.1/DTD/svg11.dtd">
<svg version="1.1" id="Layer_1" xmlns="http://www.w3.org/2000/svg" xmlns:xlink="http://www.w3.org/1999/xlink" x="0px" y="0px"
	 viewBox="0 0 160 160" style="enable-background:new 0 0 160 160;" xml:space="preserve">
<g>
	<path d="M80.5,150.6c-39.1,0-70.9-31.8-70.9-70.9c0-39.1,31.8-70.9,70.9-70.9s70.9,31.8,70.9,70.9
		C151.4,118.8,119.6,150.6,80.5,150.6z M80.5,9.7c-38.6,0-69.9,31.4-69.9,69.9s31.4,69.9,69.9,69.9c38.6,0,69.9-31.4,69.9-69.9
		S119,9.7,80.5,9.7z"/>
</g>
<g>
	<polygon points="106.3,45.7 54.6,45.7 54.6,13.6 55.6,13.6 55.6,44.7 105.3,44.7 105.3,13.6 106.3,13.6 	"/>
</g>
<path d="M80.5,138.6l-0.3-0.2c-0.1-0.1-13-10.2-13-23.7c0-13.5,12.8-24.4,13-24.5l0.3-0.3l0.3,0.2c0.1,0.1,13.1,10.2,13.1,24.5
	c0,14.3-13,23.6-13.1,23.7L80.5,138.6z M80.5,91.3c-1.9,1.7-12.3,11.6-12.3,23.4c0,11.9,10.4,21.1,12.3,22.7
	c1.9-1.5,12.4-10.1,12.4-22.7C92.8,102.2,82.4,92.9,80.5,91.3z"/>
<g>
	<path d="M80.5,128.2l-0.4-0.3c-0.2-0.2-4.8-4-4.8-17c0-13,4.6-16.3,4.8-16.4l0.3-0.2l0.3,0.3c0.2,0.2,4.8,4.6,4.8,16.4
		c0,11.7-4.6,16.7-4.8,16.9L80.5,128.2z M80.4,95.7c-1,1-4.1,4.9-4.1,15.3c0,10.3,3,14.6,4.1,15.8c1-1.4,4.2-6.4,4.2-15.8
		C84.6,101.5,81.5,96.9,80.4,95.7z"/>
</g>
<g>
	<path d="M106.5,86H54.6l0-0.5c0-0.1,0.2-12.6,3.8-24.6c3.7-12,6.9-15.8,7.1-16l0.8,0.7c0,0-3.3,3.9-6.9,15.6
		c-3.2,10.5-3.7,21.3-3.8,23.8h49.8c-0.1-2.4-0.6-13.3-3.8-23.8c-3.6-11.7-6.9-15.7-6.9-15.8l0.8-0.6c0.1,0.2,3.4,4.1,7.1,16.1
		c3.6,11.9,3.9,24.4,3.9,24.6L106.5,86z"/>
</g>
<g>
	<rect x="56" y="74" width="49" height="1"/>
</g>
<g>
	<rect x="58" y="62" width="45" height="1"/>
</g>
<g>
	<rect x="62" y="53" width="37" height="1"/>
</g>
</svg>
